<svg width="28" height="37" viewBox="0 0 28 37" fill="none" xmlns="http://www.w3.org/2000/svg">
<circle cx="14" cy="14" r="6" fill="#477C9A"/>
<path d="M12.7761 35.2938C2.84365 20.8947 1 19.4169 1 14.125C1 6.87624 6.87624 1 14.125 1C21.3738 1 27.25 6.87624 27.25 14.125C27.25 19.4169 25.4063 20.8947 15.4739 35.2938C14.8221 36.2354 13.4279 36.2354 12.7761 35.2938ZM14.125 19.5938C17.1453 19.5938 19.5938 17.1453 19.5938 14.125C19.5938 11.1047 17.1453 8.65625 14.125 8.65625C11.1047 8.65625 8.65625 11.1047 8.65625 14.125C8.65625 17.1453 11.1047 19.5938 14.125 19.5938Z" fill="#00A2FF"/>
<path d="M12.6527 35.379L12.6528 35.3792C13.3642 36.4069 14.8857 36.407 15.5972 35.3792L15.5973 35.379C17.3651 32.8163 18.8777 30.6615 20.1696 28.821C22.5034 25.4962 24.1173 23.1971 25.2152 21.3715C26.0699 19.9503 26.6175 18.8074 26.9506 17.6829C27.2839 16.5572 27.4 15.4573 27.4 14.125C27.4 6.7934 21.4566 0.85 14.125 0.85C6.7934 0.85 0.85 6.7934 0.85 14.125C0.85 15.4573 0.966086 16.5572 1.29944 17.6829C1.63245 18.8074 2.18013 19.9503 3.03484 21.3715C4.13273 23.1971 5.74659 25.4962 8.08044 28.821C9.37235 30.6615 10.8849 32.8163 12.6527 35.379ZM19.4438 14.125C19.4438 17.0625 17.0625 19.4438 14.125 19.4438C11.1875 19.4438 8.80625 17.0625 8.80625 14.125C8.80625 11.1875 11.1875 8.80625 14.125 8.80625C17.0625 8.80625 19.4438 11.1875 19.4438 14.125Z" stroke="#24323A" stroke-opacity="0.35" stroke-width="0.3"/>
</svg>
